<svg width="256" height="256" viewBox="0 0 256 256" fill="none" xmlns="http://www.w3.org/2000/svg">
<rect width="256" height="256" fill="black"/>
<rect x="42" y="22" width="14" height="14" fill="black"/>
<rect x="56" y="22" width="13" height="14" fill="black"/>
<rect x="69" y="22" width="13" height="14" fill="black"/>
<rect x="82" y="22" width="13" height="14" fill="black"/>
<rect x="95" y="22" width="14" height="14" fill="black"/>
<rect x="109" y="22" width="13" height="14" fill="black"/>
<rect x="122" y="22" width="13" height="14" fill="#CD6CFA"/>
<rect x="135" y="22" width="13" height="14" fill="#CD6CFA"/>
<rect x="148" y="22" width="14" height="14" fill="#CD6CFA"/>
<rect x="162" y="22" width="13" height="14" fill="#CD6CFA"/>
<rect x="175" y="22" width="13" height="14" fill="black"/>
<rect x="188" y="22" width="13" height="14" fill="black"/>
<rect x="201" y="22" width="14" height="14" fill="black"/>
<rect x="42" y="36" width="14" height="12" fill="black"/>
<rect x="56" y="36" width="13" height="12" fill="black"/>
<rect x="69" y="36" width="13" height="12" fill="black"/>
<rect x="82" y="36" width="13" height="12" fill="black"/>
<rect x="95" y="36" width="14" height="12" fill="#CD6CFA"/>
<rect x="109" y="36" width="13" height="12" fill="#CD6CFA"/>
<rect x="122" y="36" width="13" height="12" fill="#CD6CFA"/>
<rect x="135" y="36" width="13" height="12" fill="#CD6CFA"/>
<rect x="148" y="36" width="14" height="12" fill="#CD6CFA"/>
<rect x="162" y="36" width="13" height="12" fill="black"/>
<rect x="175" y="36" width="13" height="12" fill="black"/>
<rect x="188" y="36" width="13" height="12" fill="black"/>
<rect x="201" y="36" width="14" height="12" fill="black"/>
<rect x="42" y="48" width="14" height="14" fill="black"/>
<rect x="56" y="48" width="13" height="14" fill="black"/>
<rect x="69" y="48" width="13" height="14" fill="#CD6CFA"/>
<rect x="82" y="48" width="13" height="14" fill="#CD6CFA"/>
<rect x="95" y="48" width="14" height="14" fill="#CD6CFA"/>
<rect x="109" y="48" width="13" height="14" fill="#CD6CFA"/>
<rect x="122" y="48" width="13" height="14" fill="#CD6CFA"/>
<rect x="135" y="48" width="13" height="14" fill="#CD6CFA"/>
<rect x="148" y="48" width="14" height="14" fill="#CD6CFA"/>
<rect x="162" y="48" width="13" height="14" fill="#CD6CFA"/>
<rect x="175" y="48" width="13" height="14" fill="#CD6CFA"/>
<rect x="188" y="48" width="13" height="14" fill="#CD6CFA"/>
<rect x="201" y="48" width="14" height="14" fill="black"/>
<rect x="42" y="62" width="14" height="13" fill="black"/>
<rect x="56" y="62" width="13" height="13" fill="#CD6CFA"/>
<rect x="69" y="62" width="13" height="13" fill="#CD6CFA"/>
<rect x="82" y="62" width="13" height="13" fill="#CD6CFA"/>
<rect x="95" y="62" width="14" height="13" fill="#CD6CFA"/>
<rect x="109" y="62" width="13" height="13" fill="#CD6CFA"/>
<rect x="122" y="62" width="13" height="13" fill="#CD6CFA"/>
<rect x="135" y="62" width="13" height="13" fill="#CD6CFA"/>
<rect x="148" y="62" width="14" height="13" fill="#CD6CFA"/>
<rect x="162" y="62" width="13" height="13" fill="#CD6CFA"/>
<rect x="175" y="62" width="13" height="13" fill="#CD6CFA"/>
<rect x="188" y="62" width="13" height="13" fill="black"/>
<rect x="201" y="62" width="14" height="13" fill="black"/>
<rect x="42" y="75" width="14" height="13" fill="black"/>
<rect x="56" y="75" width="13" height="13" fill="#CD6CFA"/>
<rect x="69" y="75" width="13" height="13" fill="#CD6CFA"/>
<rect x="82" y="75" width="13" height="13" fill="#CD6CFA"/>
<rect x="95" y="75" width="14" height="13" fill="#CD6CFA"/>
<rect x="109" y="75" width="13" height="13" fill="#FFCFDB"/>
<rect x="122" y="75" width="13" height="13" fill="#FFCFDB"/>
<rect x="135" y="75" width="13" height="13" fill="#FFCFDB"/>
<rect x="148" y="75" width="14" height="13" fill="#FFCFDB"/>
<rect x="162" y="75" width="13" height="13" fill="#FFCFDB"/>
<rect x="175" y="75" width="13" height="13" fill="#CD6CFA"/>
<rect x="188" y="75" width="13" height="13" fill="#CD6CFA"/>
<rect x="201" y="75" width="14" height="13" fill="black"/>
<rect x="42" y="88" width="14" height="14" fill="#CD6CFA"/>
<rect x="56" y="88" width="13" height="14" fill="#CD6CFA"/>
<rect x="69" y="88" width="13" height="14" fill="#693383"/>
<rect x="82" y="88" width="13" height="14" fill="#693383"/>
<rect x="95" y="88" width="14" height="14" fill="#693383"/>
<rect x="109" y="88" width="13" height="14" fill="#693383"/>
<rect x="122" y="88" width="13" height="14" fill="#693383"/>
<rect x="135" y="88" width="13" height="14" fill="#693383"/>
<rect x="148" y="88" width="14" height="14" fill="#693383"/>
<rect x="162" y="88" width="13" height="14" fill="#693383"/>
<rect x="175" y="88" width="13" height="14" fill="#693383"/>
<rect x="188" y="88" width="13" height="14" fill="#693383"/>
<rect x="201" y="88" width="14" height="14" fill="black"/>
<rect x="42" y="102" width="14" height="12" fill="#CD6CFA"/>
<rect x="56" y="102" width="13" height="12" fill="#CD6CFA"/>
<rect x="69" y="102" width="13" height="12" fill="#CD6CFA"/>
<rect x="82" y="102" width="13" height="12" fill="#FFCFDB"/>
<rect x="95" y="102" width="14" height="12" fill="#693383"/>
<rect x="109" y="102" width="13" height="12" fill="#693383"/>
<rect x="122" y="102" width="13" height="12" fill="#693383"/>
<rect x="135" y="102" width="13" height="12" fill="#FFCFDB"/>
<rect x="148" y="102" width="14" height="12" fill="#693383"/>
<rect x="162" y="102" width="13" height="12" fill="#693383"/>
<rect x="175" y="102" width="13" height="12" fill="#693383"/>
<rect x="188" y="102" width="13" height="12" fill="#CD6CFA"/>
<rect x="201" y="102" width="14" height="12" fill="black"/>
<rect x="42" y="114" width="14" height="14" fill="#CD6CFA"/>
<rect x="56" y="114" width="13" height="14" fill="#CD6CFA"/>
<rect x="69" y="114" width="13" height="14" fill="#CD6CFA"/>
<rect x="82" y="114" width="13" height="14" fill="#FFCFDB"/>
<rect x="95" y="114" width="14" height="14" fill="#FFCFDB"/>
<rect x="109" y="114" width="13" height="14" fill="#693383"/>
<rect x="122" y="114" width="13" height="14" fill="#693383"/>
<rect x="135" y="114" width="13" height="14" fill="#FFCFDB"/>
<rect x="148" y="114" width="14" height="14" fill="#FFCFDB"/>
<rect x="162" y="114" width="13" height="14" fill="#693383"/>
<rect x="175" y="114" width="13" height="14" fill="#693383"/>
<rect x="188" y="114" width="13" height="14" fill="#FFCFDB"/>
<rect x="201" y="114" width="14" height="14" fill="#CD6CFA"/>
<rect x="42" y="128" width="14" height="14" fill="#CD6CFA"/>
<rect x="56" y="128" width="13" height="14" fill="#CD6CFA"/>
<rect x="69" y="128" width="13" height="14" fill="#CD6CFA"/>
<rect x="82" y="128" width="13" height="14" fill="#FFCFDB"/>
<rect x="95" y="128" width="14" height="14" fill="#FFCFDB"/>
<rect x="109" y="128" width="13" height="14" fill="#FFCFDB"/>
<rect x="122" y="128" width="13" height="14" fill="#FFCFDB"/>
<rect x="135" y="128" width="13" height="14" fill="#FFCFDB"/>
<rect x="148" y="128" width="14" height="14" fill="#FFCFDB"/>
<rect x="162" y="128" width="13" height="14" fill="#FFCFDB"/>
<rect x="175" y="128" width="13" height="14" fill="#FFCFDB"/>
<rect x="188" y="128" width="13" height="14" fill="#FFCFDB"/>
<rect x="201" y="128" width="14" height="14" fill="#CD6CFA"/>
<rect x="42" y="142" width="14" height="12" fill="#CD6CFA"/>
<rect x="56" y="142" width="13" height="12" fill="#CD6CFA"/>
<rect x="69" y="142" width="13" height="12" fill="#CD6CFA"/>
<rect x="82" y="142" width="13" height="12" fill="#FFCFDB"/>
<rect x="95" y="142" width="14" height="12" fill="#FFCFDB"/>
<rect x="109" y="142" width="13" height="12" fill="#FFCFDB"/>
<rect x="122" y="142" width="13" height="12" fill="#FFCFDB"/>
<rect x="135" y="142" width="13" height="12" fill="#FFCFDB"/>
<rect x="148" y="142" width="14" height="12" fill="#FFCFDB"/>
<rect x="162" y="142" width="13" height="12" fill="#FFCFDB"/>
<rect x="175" y="142" width="13" height="12" fill="#FFCFDB"/>
<rect x="188" y="142" width="13" height="12" fill="#FFCFDB"/>
<rect x="201" y="142" width="14" height="12" fill="#CD6CFA"/>
<rect x="42" y="154" width="14" height="14" fill="#CD6CFA"/>
<rect x="56" y="154" width="13" height="14" fill="#CD6CFA"/>
<rect x="69" y="154" width="13" height="14" fill="#CD6CFA"/>
<rect x="82" y="154" width="13" height="14" fill="#FFCFDB"/>
<rect x="95" y="154" width="14" height="14" fill="#FFCFDB"/>
<rect x="109" y="154" width="13" height="14" fill="#FFCFDB"/>
<rect x="122" y="154" width="13" height="14" fill="#FFCFDB"/>
<rect x="135" y="154" width="13" height="14" fill="#693383"/>
<rect x="148" y="154" width="14" height="14" fill="#FFCFDB"/>
<rect x="162" y="154" width="13" height="14" fill="#FFCFDB"/>
<rect x="175" y="154" width="13" height="14" fill="#FFCFDB"/>
<rect x="188" y="154" width="13" height="14" fill="#FFCFDB"/>
<rect x="201" y="154" width="14" height="14" fill="#CD6CFA"/>
<rect x="42" y="168" width="14" height="13" fill="black"/>
<rect x="56" y="168" width="13" height="13" fill="#CD6CFA"/>
<rect x="69" y="168" width="13" height="13" fill="#CD6CFA"/>
<rect x="82" y="168" width="13" height="13" fill="#FFCFDB"/>
<rect x="95" y="168" width="14" height="13" fill="#FFCFDB"/>
<rect x="109" y="168" width="13" height="13" fill="#FFCFDB"/>
<rect x="122" y="168" width="13" height="13" fill="#FFCFDB"/>
<rect x="135" y="168" width="13" height="13" fill="#FFCFDB"/>
<rect x="148" y="168" width="14" height="13" fill="#FFCFDB"/>
<rect x="162" y="168" width="13" height="13" fill="#FFCFDB"/>
<rect x="175" y="168" width="13" height="13" fill="#FFCFDB"/>
<rect x="188" y="168" width="13" height="13" fill="#CD6CFA"/>
<rect x="201" y="168" width="14" height="13" fill="#CD6CFA"/>
<rect x="42" y="181" width="14" height="13" fill="black"/>
<rect x="56" y="181" width="13" height="13" fill="#CD6CFA"/>
<rect x="69" y="181" width="13" height="13" fill="#CD6CFA"/>
<rect x="82" y="181" width="13" height="13" fill="#CD6CFA"/>
<rect x="95" y="181" width="14" height="13" fill="#CD6CFA"/>
<rect x="109" y="181" width="13" height="13" fill="#FFCFDB"/>
<rect x="122" y="181" width="13" height="13" fill="#FFCFDB"/>
<rect x="135" y="181" width="13" height="13" fill="#FFCFDB"/>
<rect x="148" y="181" width="14" height="13" fill="#FFCFDB"/>
<rect x="162" y="181" width="13" height="13" fill="#FFCFDB"/>
<rect x="175" y="181" width="13" height="13" fill="#CD6CFA"/>
<rect x="188" y="181" width="13" height="13" fill="#CD6CFA"/>
<rect x="201" y="181" width="14" height="13" fill="#CD6CFA"/>
<rect x="42" y="194" width="14" height="14" fill="black"/>
<rect x="56" y="194" width="13" height="14" fill="black"/>
<rect x="69" y="194" width="13" height="14" fill="#CD6CFA"/>
<rect x="82" y="194" width="13" height="14" fill="#CD6CFA"/>
<rect x="95" y="194" width="14" height="14" fill="#CD6CFA"/>
<rect x="109" y="194" width="13" height="14" fill="#CD6CFA"/>
<rect x="122" y="194" width="13" height="14" fill="#CD6CFA"/>
<rect x="135" y="194" width="13" height="14" fill="#CD6CFA"/>
<rect x="148" y="194" width="14" height="14" fill="#CD6CFA"/>
<rect x="162" y="194" width="13" height="14" fill="#CD6CFA"/>
<rect x="175" y="194" width="13" height="14" fill="#CD6CFA"/>
<rect x="188" y="194" width="13" height="14" fill="#CD6CFA"/>
<rect x="201" y="194" width="14" height="14" fill="black"/>
<rect x="42" y="208" width="14" height="12" fill="black"/>
<rect x="56" y="208" width="13" height="12" fill="black"/>
<rect x="69" y="208" width="13" height="12" fill="black"/>
<rect x="82" y="208" width="13" height="12" fill="black"/>
<rect x="95" y="208" width="14" height="12" fill="black"/>
<rect x="109" y="208" width="13" height="12" fill="#CD6CFA"/>
<rect x="122" y="208" width="13" height="12" fill="#CD6CFA"/>
<rect x="135" y="208" width="13" height="12" fill="#CD6CFA"/>
<rect x="148" y="208" width="14" height="12" fill="#CD6CFA"/>
<rect x="162" y="208" width="13" height="12" fill="#CD6CFA"/>
<rect x="175" y="208" width="13" height="12" fill="black"/>
<rect x="188" y="208" width="13" height="12" fill="black"/>
<rect x="201" y="208" width="14" height="12" fill="black"/>
<rect x="42" y="220" width="14" height="14" fill="black"/>
<rect x="56" y="220" width="13" height="14" fill="black"/>
<rect x="69" y="220" width="13" height="14" fill="black"/>
<rect x="82" y="220" width="13" height="14" fill="black"/>
<rect x="95" y="220" width="14" height="14" fill="black"/>
<rect x="109" y="220" width="13" height="14" fill="black"/>
<rect x="122" y="220" width="13" height="14" fill="black"/>
<rect x="135" y="220" width="13" height="14" fill="black"/>
<rect x="148" y="220" width="14" height="14" fill="black"/>
<rect x="162" y="220" width="13" height="14" fill="black"/>
<rect x="175" y="220" width="13" height="14" fill="black"/>
<rect x="188" y="220" width="13" height="14" fill="black"/>
<rect x="201" y="220" width="14" height="14" fill="black"/>
</svg>
